<?xml version="1.0" encoding="UTF-8"?>
<svg version="1.1" xmlns="http://www.w3.org/2000/svg" width="512" height="512">
<path d="M0 0 C1.43883545 0.30599121 1.43883545 0.30599121 2.90673828 0.61816406 C40.04273686 8.74443609 74.19490909 25.11983286 103 50 C103.91007812 50.77988281 104.82015625 51.55976562 105.7578125 52.36328125 C108.22066132 54.52916276 110.61995399 56.74344694 113 59 C113.49564453 59.46841309 113.99128906 59.93682617 114.50195312 60.41943359 C122.84733145 68.36173927 130.13206378 76.76105198 137 86 C137.4237793 86.55768066 137.84755859 87.11536133 138.28417969 87.68994141 C145.5421633 97.24916887 151.47749079 107.35342137 157 118 C157.39074707 118.74878418 157.78149414 119.49756836 158.18408203 120.26904297 C174.48477123 151.90592402 181.38716094 186.04553588 181.31567383 221.41577148 C181.31252193 224.66489519 181.33603157 227.91309791 181.36132812 231.16210938 C181.49750212 275.45669282 168.55081268 321.10108869 142 357 C141.319375 357.95003906 140.63875 358.90007812 139.9375 359.87890625 C105.34950235 407.25211018 56.23015131 438.03807635 -1 450 C-1.82000488 450.18079102 -2.64000977 450.36158203 -3.48486328 450.54785156 C-28.86374682 455.96732871 -59.69289661 455.55448749 -85 450 C-86.44802002 449.70198486 -86.44802002 449.70198486 -87.92529297 449.39794922 C-147.5170424 437.00041369 -198.47432308 401.57868436 -232 351 C-245.39078555 330.21458895 -255.34734443 307.63197253 -261.25 283.625 C-261.48420654 282.68253418 -261.71841309 281.74006836 -261.9597168 280.76904297 C-266.03162049 263.32219852 -267.49756967 246.09170471 -267.39111328 228.20703125 C-267.37501091 225.00217154 -267.39107993 221.7985723 -267.41015625 218.59375 C-267.42923472 200.82300328 -265.5430584 183.64165139 -261.25 166.375 C-260.99105957 165.32634766 -260.73211914 164.27769531 -260.46533203 163.19726562 C-252.13870285 130.52781318 -235.98639838 100.45482113 -214 75 C-213.22011719 74.08992188 -212.44023437 73.17984375 -211.63671875 72.2421875 C-209.47083724 69.77933868 -207.25655306 67.38004601 -205 65 C-204.53158691 64.50435547 -204.06317383 64.00871094 -203.58056641 63.49804688 C-195.63826073 55.15266855 -187.23894802 47.86793622 -178 41 C-177.44231934 40.5762207 -176.88463867 40.15244141 -176.31005859 39.71582031 C-149.38700168 19.27409458 -117.876025 6.87156144 -85 0 C-84.17999512 -0.18079102 -83.35999023 -0.36158203 -82.51513672 -0.54785156 C-56.85414484 -6.02757091 -25.5958949 -5.53025112 0 0 Z " fill="#4F4F4F" transform="translate(299,35)"/>
<path d="M0 0 C1.12664062 0.3403125 2.25328125 0.680625 3.4140625 1.03125 C27.39154766 8.89969302 44.87610343 24.59149362 56.5078125 46.890625 C59.98444867 54.17698823 63 61.85273308 63 70 C63.66 70 64.32 70 65 70 C65.08636719 69.27296875 65.17273438 68.5459375 65.26171875 67.796875 C68.19191117 46.82852558 80.4059018 28.46827202 96.75 15.35546875 C117.75543287 -0.32781554 141.50966059 -5.40650563 167.3125 -2.3125 C190.11556278 1.52328202 211.24975432 14.53480578 224.82373047 33.26904297 C237.7741244 52.32638895 243.33811802 73.4157467 239.3359375 96.35546875 C238.42189502 100.31764418 237.30318837 104.15323915 236 108 C235.6299585 109.12849365 235.6299585 109.12849365 235.25244141 110.27978516 C227.80679256 132.70814543 216.37929555 151.04004996 200 168 C199.26136719 168.79019531 198.52273438 169.58039063 197.76171875 170.39453125 C188.19042363 180.38577351 176.95899745 188.13882352 165 195 C164.39800781 195.35416992 163.79601562 195.70833984 163.17578125 196.07324219 C117.87215121 222.53149623 61.16326803 227.49279745 10.80517578 214.74609375 C-32.72941185 203.16718167 -72.38878738 177.38375351 -95.3125 137.9375 C-107.92757952 115.05014144 -117.2155066 88.2870906 -110.61401367 62.01391602 C-106.89925496 49.45168029 -100.52823638 37.92340869 -92 28 C-91.48179688 27.33871094 -90.96359375 26.67742187 -90.4296875 25.99609375 C-77.46677367 9.99597547 -56.05176879 -0.20997363 -35.90625 -2.68359375 C-23.60519724 -3.67997902 -11.88443056 -3.71201357 0 0 Z " fill="#FEFEFE" transform="translate(192,235)"/>
<path d="M0 0 C1.43883545 0.30599121 1.43883545 0.30599121 2.90673828 0.61816406 C40.04273686 8.74443609 74.19490909 25.11983286 103 50 C103.91007812 50.77988281 104.82015625 51.55976562 105.7578125 52.36328125 C108.22066132 54.52916276 110.61995399 56.74344694 113 59 C113.49564453 59.46841309 113.99128906 59.93682617 114.50195312 60.41943359 C122.84733145 68.36173927 130.13206378 76.76105198 137 86 C137.4237793 86.55768066 137.84755859 87.11536133 138.28417969 87.68994141 C145.5421633 97.24916887 151.47749079 107.35342137 157 118 C157.39074707 118.74878418 157.78149414 119.49756836 158.18408203 120.26904297 C172.20130557 147.47410334 182.1775481 180.122072 181 211 C180.67 211 180.34 211 180 211 C179.81993408 209.76419189 179.81993408 209.76419189 179.63623047 208.50341797 C175.08457785 177.71232298 167.74997064 149.62950066 153 122 C152.39800781 120.8553125 151.79601562 119.710625 151.17578125 118.53125 C137.67473352 93.85008937 118.31050437 71.13705408 96 54 C95.43941895 53.5683252 94.87883789 53.13665039 94.30126953 52.69189453 C80.41778778 42.06712732 65.78691772 33.47671708 50 26 C48.94167969 25.48824219 47.88335937 24.97648437 46.79296875 24.44921875 C-6.75401219 -0.04637919 -69.14229851 0.58977474 -123.828125 20.6171875 C-160.20976968 34.41441627 -194.27890424 59.00553689 -218 90 C-218.43022461 90.55913086 -218.86044922 91.11826172 -219.30371094 91.69433594 C-245.91990285 126.47106362 -260.60683244 166.72311888 -266 210 C-266.33 210 -266.66 210 -267 210 C-268.04101486 161.27150822 -245.33966722 111.28359724 -214 75 C-213.22011719 74.08992188 -212.44023437 73.17984375 -211.63671875 72.2421875 C-209.47083724 69.77933868 -207.25655306 67.38004601 -205 65 C-204.53158691 64.50435547 -204.06317383 64.00871094 -203.58056641 63.49804688 C-195.63826073 55.15266855 -187.23894802 47.86793622 -178 41 C-177.44231934 40.5762207 -176.88463867 40.15244141 -176.31005859 39.71582031 C-149.38700168 19.27409458 -117.876025 6.87156144 -85 0 C-84.17999512 -0.18079102 -83.35999023 -0.36158203 -82.51513672 -0.54785156 C-56.85414484 -6.02757091 -25.5958949 -5.53025112 0 0 Z " fill="#5F5F5F" transform="translate(299,35)"/>
<path d="M0 0 C0.33 0 0.66 0 1 0 C3.0614567 41.15278378 -13.76772849 87.23594956 -38 120 C-38.680625 120.95003906 -39.36125 121.90007812 -40.0625 122.87890625 C-74.65049765 170.25211018 -123.76984869 201.03807635 -181 213 C-181.82000488 213.18079102 -182.64000977 213.36158203 -183.48486328 213.54785156 C-208.86374682 218.96732871 -239.69289661 218.55448749 -265 213 C-266.44802002 212.70198486 -266.44802002 212.70198486 -267.92529297 212.39794922 C-327.5170424 200.00041369 -378.47432308 164.57868436 -412 114 C-432.61469262 82.00151432 -447.69281261 42.48958917 -447 4 C-446.67 4 -446.34 4 -446 4 C-445.91548584 4.68698975 -445.83097168 5.37397949 -445.74389648 6.08178711 C-439.68581214 53.94739783 -421.56478164 99.10362977 -388.23828125 134.609375 C-386.21295094 136.77255502 -384.28765579 138.98762611 -382.375 141.25 C-378.89551292 145.23808959 -375.05552658 148.61113532 -371 152 C-370.1028125 152.7734375 -369.205625 153.546875 -368.28125 154.34375 C-321.4032539 194.31340984 -261.87063773 210.97275883 -200.92608643 206.86004639 C-153.62587876 203.03994694 -107.04460541 181.4296331 -72.453125 149.265625 C-70.30441449 147.28114714 -68.11119955 145.38404214 -65.875 143.5 C-46.12532856 126.18412645 -30.83353617 101.72685117 -20 78 C-19.6704834 77.28972656 -19.3409668 76.57945312 -19.00146484 75.84765625 C-8.12862844 52.17804778 -1.12262621 26.10105949 0 0 Z " fill="#010101" transform="translate(479,272)"/>
<path d="M0 0 C31.68 0 63.36 0 96 0 C91.49585745 7.0779383 86.97466682 14.13252239 82.359375 21.13671875 C81.75168274 22.05983353 81.14399048 22.9829483 80.5178833 23.93403625 C79.24105018 25.87290561 77.96376243 27.81147564 76.68603516 29.74975586 C74.76675856 32.66207053 72.8501071 35.57610079 70.93359375 38.49023438 C63.74208967 49.4115564 56.46382718 60.26278457 49 71 C45.54290576 69.84763525 45.18600125 69.19873082 43.26708984 66.24414062 C42.7410466 65.4432048 42.21500336 64.64226898 41.67301941 63.81706238 C41.10803238 62.93899429 40.54304535 62.06092621 39.9609375 61.15625 C39.36666458 60.24744583 38.77239166 59.33864166 38.16011047 58.40229797 C36.22448882 55.43952503 34.29986247 52.46977165 32.375 49.5 C29.74696917 45.4703798 27.11356658 41.44427918 24.48046875 37.41796875 C23.83372696 36.42729904 23.18698517 35.43662933 22.52064514 34.41593933 C16.65640124 25.4434917 10.65710157 16.57112736 4.57373047 7.74609375 C3.9551416 6.84632813 3.33655273 5.9465625 2.69921875 5.01953125 C1.90777466 3.87641479 1.90777466 3.87641479 1.1003418 2.71020508 C0 1 0 1 0 0 Z " fill="#E95151" transform="translate(208,360)"/>
<path d="M0 0 C0.99 0 1.98 0 3 0 C3.3403125 0.98097656 3.680625 1.96195312 4.03125 2.97265625 C11.47629688 23.92035847 22.61255244 41.02703312 38 57 C38.63035156 57.69351563 39.26070312 58.38703125 39.91015625 59.1015625 C68.70929312 89.86283837 116.92634637 107.28735268 158.140625 108.94921875 C160.05101562 108.97435547 160.05101562 108.97435547 162 109 C162.86044922 109.01369629 163.72089844 109.02739258 164.60742188 109.04150391 C171.40733692 109.13729361 178.20044966 109.10805044 185 109 C186.28519531 108.98324219 187.57039062 108.96648437 188.89453125 108.94921875 C235.0423001 107.103308 281.19970588 85.68776972 312.97265625 52.37109375 C322.81338584 41.64976196 331.17053826 28.92420681 337.05859375 15.60546875 C338 14 338 14 341 13 C340.44287118 18.01415942 338.78249785 22.06051181 336.5 26.5 C336.14542725 27.19633545 335.79085449 27.8926709 335.42553711 28.61010742 C314.97160517 68.01131009 278.91154465 94.9644148 237.12451172 108.60717773 C184.56860817 124.93742682 127.10648772 120.92648633 78.0625 95.625 C69.49997618 91.07598721 61.63799075 85.95802348 54 80 C53.07445312 79.29617188 52.14890625 78.59234375 51.1953125 77.8671875 C26.3666225 58.36407159 8.6904011 32.46752387 0 2 C0 1.34 0 0.68 0 0 Z " fill="#434343" transform="translate(83,346)"/>
<path d="M0 0 C5.54772645 3.80646925 10.10735833 9.01188853 12.140625 15.46875 C13.08991485 22.75399766 12.33654393 29.33711381 8.140625 35.46875 C3.02230586 41.10181471 -1.67211232 44.97243783 -9.390625 45.7109375 C-15.77834555 46.00926511 -20.70639167 45.4043279 -25.859375 41.46875 C-32.49016305 35.2619555 -35.80716904 30.24098346 -36.234375 21.09375 C-36.06149574 14.36965668 -34.40452533 10.14210753 -29.765625 5.26953125 C-21.0360648 -2.83441047 -11.14510397 -5.61264228 0 0 Z " fill="#414141" transform="translate(331.859375,306.53125)"/>
<path d="M0 0 C5.54772645 3.80646925 10.10735833 9.01188853 12.140625 15.46875 C13.08991485 22.75399766 12.33654393 29.33711381 8.140625 35.46875 C3.02230586 41.10181471 -1.67211232 44.97243783 -9.390625 45.7109375 C-15.77834555 46.00926511 -20.70639167 45.4043279 -25.859375 41.46875 C-32.49016305 35.2619555 -35.80716904 30.24098346 -36.234375 21.09375 C-36.06149574 14.36965668 -34.40452533 10.14210753 -29.765625 5.26953125 C-21.0360648 -2.83441047 -11.14510397 -5.61264228 0 0 Z " fill="#414141" transform="translate(203.859375,306.53125)"/>
<path d="M0 0 C1.49828872 3.88235819 0.43110582 6.43449288 -0.9375 10.25 C-1.31777344 11.32765625 -1.69804687 12.4053125 -2.08984375 13.515625 C-2.39019531 14.33546875 -2.69054687 15.1553125 -3 16 C-3.99 16 -4.98 16 -6 16 C-5.3739007 12.37384158 -4.38690533 9.15607632 -3 5.75 C-2.649375 4.87859375 -2.29875 4.0071875 -1.9375 3.109375 C-1 1 -1 1 0 0 Z " fill="#494949" transform="translate(428,344)"/>
<path d="M0 0 C0.66 0.66 1.32 1.32 2 2 C1.625 5.625 1.625 5.625 1 9 C0.01 9 -0.98 9 -2 9 C-1.34 6.03 -0.68 3.06 0 0 Z " fill="#5A5A5A" transform="translate(429,336)"/>
</svg>
